<svg xmlns="http://www.w3.org/2000/svg" width="19.197" height="14.319" viewBox="0 0 19.197 14.319">
  <path id="Path_1097" data-name="Path 1097" d="M-289.977,1668.493q-1.188-1.291-2.373-2.583c-.079-.087-.125-.121-.233-.02-.709.669-1.427,1.33-2.142,1.993q-1.754,1.626-3.507,3.253c-.439.408-.873.822-1.309,1.234-.855.79-1.713,1.577-2.562,2.372-.124.116-.184.139-.313,0-1.286-1.385-2.582-2.762-3.872-4.144-.089-.1-.139-.12-.249-.016q-1.248,1.181-2.51,2.348c-.088.081-.094.126-.007.217.766.809,1.526,1.624,2.288,2.438q2.105,2.248,4.209,4.5c.075.081.116.093.2.009q1.418-1.328,2.845-2.646c.048-.04.1-.078.143-.12q1.17-1.085,2.338-2.171,2.712-2.513,5.425-5.026.84-.777,1.683-1.55v-.038A.544.544,0,0,1-289.977,1668.493Z" transform="translate(309.117 -1665.828)" fill="#ef7f1b"/>
</svg>
