<svg xmlns="http://www.w3.org/2000/svg" width="22.137" height="22.144" viewBox="0 0 22.137 22.144">
  <g id="Group_17462" data-name="Group 17462" transform="translate(-413.749 -4361.24)">
    <path id="Path_11498" data-name="Path 11498" d="M-3435.914-1209.58a.851.851,0,0,1,.638.776.777.777,0,0,1-.7.837c-.461.052-.928.055-1.388.116a8.841,8.841,0,0,0-4.556,2,8.82,8.82,0,0,0-3.045,4.755,8.939,8.939,0,0,0,2.054,8.456,8.716,8.716,0,0,0,5.369,2.942,8.934,8.934,0,0,0,7.479-2.148,8.753,8.753,0,0,0,2.851-4.589,19.355,19.355,0,0,0,.3-2.02c.017-.125.008-.254.023-.379a.8.8,0,0,1,.7-.734.809.809,0,0,1,.878.543c.012.032.03.061.045.092v.8c-.013.075-.028.149-.039.224-.068.466-.106.938-.206,1.4a10.51,10.51,0,0,1-4.015,6.331,10.5,10.5,0,0,1-8.83,1.982,10.446,10.446,0,0,1-6.3-3.988,10.524,10.524,0,0,1-2.189-7.662,10.458,10.458,0,0,1,2.639-6.048,10.624,10.624,0,0,1,6.258-3.52c.407-.073.82-.113,1.23-.168Z" transform="translate(3860.899 5571.07)" fill="#fff" stroke="#fff" stroke-width="0.5"/>
    <path id="Path_11499" data-name="Path 11499" d="M-3413.44-1184.445a1.857,1.857,0,0,1,.168-.239q4.741-4.733,9.483-9.463a.9.9,0,0,1,.823-.328.807.807,0,0,1,.495,1.306,2.292,2.292,0,0,1-.173.185l-10.143,10.118a.855.855,0,0,1-1.424-.037q-1.961-2.129-3.921-4.259a.821.821,0,0,1,.065-1.272.8.8,0,0,1,1,.036,2.219,2.219,0,0,1,.194.194l3.278,3.559C-3413.558-1184.6-3413.522-1184.548-3413.44-1184.445Z" transform="translate(3837.543 5558.701)" fill="#ef7f1b" stroke="#ef7f1b" stroke-width="0.5"/>
  </g>
</svg>
